<?xml version="1.0" encoding="UTF-8"?>
<svg width="17px" height="16px" viewBox="0 0 17 16" version="1.1" xmlns="http://www.w3.org/2000/svg" xmlns:xlink="http://www.w3.org/1999/xlink">
    <title>Path</title>
    <g id="Symbols" stroke="none" stroke-width="1" fill="none" fill-rule="evenodd">
        <g id="github" fill="#161616" fill-rule="nonzero">
            <path d="M8.20208791,0 C3.6711821,0 0,3.6711821 0,8.20208791 C0,11.8252106 2.34955643,14.9009935 5.60956581,15.9849938 C6.02073853,16.0597524 6.17025576,15.8087767 6.17025576,15.5898411 C6.17025576,15.3949349 6.16224574,14.8796339 6.15957596,14.1961266 C3.87676811,14.6900679 3.39617703,13.096107 3.39617703,13.096107 C3.02238396,12.1482751 2.48572408,11.8946296 2.48572408,11.8946296 C1.74080772,11.3873387 2.54179287,11.3980185 2.54179287,11.3980185 C3.36413762,11.4567577 3.79666994,12.2417228 3.79666994,12.2417228 C4.52823603,13.4965999 5.71636383,13.1334866 6.18360534,12.9252302 C6.25836395,12.3939105 6.47195999,12.033467 6.70424586,11.827881 C4.88333928,11.6222943 2.96898495,10.9174274 2.96898495,7.77489583 C2.96898495,6.87779247 3.28937901,6.14622637 3.8126893,5.57218685 C3.72992067,5.36660083 3.44690626,4.53090581 3.89278816,3.40151727 C3.89278816,3.40151727 4.58163504,3.18258099 6.14889615,4.24255116 C6.80303385,4.06099453 7.505231,3.97021655 8.20208791,3.96754677 C8.89894482,3.97021655 9.60114197,4.06099453 10.2552797,4.24255116 C11.8225408,3.18258099 12.5087179,3.40151727 12.5087179,3.40151727 C12.9572696,4.53090581 12.6769249,5.36660083 12.5914865,5.57218685 C13.1174666,6.14622637 13.4325211,6.87779247 13.4325211,7.77489583 C13.4325211,10.9254374 11.5154963,11.6169548 9.68925016,11.8225408 C9.98294506,12.0735165 10.2445999,12.5754672 10.2445999,13.3390727 C10.2445999,14.4364225 10.2365905,15.3201763 10.2365905,15.5898411 C10.2365905,15.8087767 10.3834373,16.0650919 10.7999496,15.9849938 C14.0572892,14.8983237 16.4041758,11.8252106 16.4041758,8.20208791 C16.4041758,3.6711821 12.7329937,0 8.20208791,0 Z" id="Path"></path>
        </g>
    </g>
</svg>