<?xml version="1.0" encoding="UTF-8"?>
<svg width="16px" height="16px" viewBox="0 0 16 16" version="1.1" xmlns="http://www.w3.org/2000/svg" xmlns:xlink="http://www.w3.org/1999/xlink">
    <title>Shape</title>
    <g id="Symbols" stroke="none" stroke-width="1" fill="none" fill-rule="evenodd">
        <g id="linkedin" fill="#161616" fill-rule="nonzero">
            <path d="M1.92187498,0 C0.860784073,0 0,0.859363636 0,1.92045455 C0,2.98154545 0.860090909,3.86079549 1.92045455,3.86079549 C2.98081818,3.86079549 3.84232945,2.98154545 3.84232945,1.92045455 C3.84232945,0.860090909 2.98296582,0 1.92187498,0 Z M11.2982953,5.09090909 C9.68447709,5.09090909 8.76109091,5.93487491 8.31818182,6.77414764 L8.27130691,6.77414764 L8.27130691,5.31676145 L5.09090909,5.31676145 L5.09090909,16 L8.40482982,16 L8.40482982,10.711648 C8.40482982,9.31819345 8.51001164,7.97159127 10.2343753,7.97159127 C11.9340116,7.97159055 11.9588065,9.56044291 11.9588065,10.7997156 L11.9588065,16 L15.2684662,16 L15.2727273,16 L15.2727273,10.1321025 C15.2727273,7.26082982 14.6553862,5.09090909 11.2982953,5.09090909 Z M0.264204509,5.31676145 L0.264204509,16 L3.58096582,16 L3.58096582,5.31676145 L0.264204509,5.31676145 Z" id="Shape"></path>
        </g>
    </g>
</svg>