<?xml version="1.0" encoding="UTF-8"?>
<svg width="64px" height="59px" viewBox="0 0 64 59" version="1.1" xmlns="http://www.w3.org/2000/svg" xmlns:xlink="http://www.w3.org/1999/xlink">
    <title>icons/coach</title>
    <g id="icons/coach" stroke="none" stroke-width="1" fill="none" fill-rule="evenodd">
        <g id="Bullseye" transform="translate(3.000000, 0.000000)" fill="#000000" fill-rule="nonzero">
            <path d="M27.6196447,19.5433647 C25.9756183,19.5433647 24.439481,19.8516196 23.011233,20.4681296 C21.582985,21.0846395 20.3294148,21.9323406 19.2505225,23.011233 C18.1716301,24.0901254 17.3239289,25.3488332 16.707419,26.7873563 C16.0909091,28.2258795 15.7826541,29.7568791 15.7826541,31.3803553 C15.7826541,33.0243817 16.0909091,34.560519 16.707419,35.988767 C17.3239289,37.417015 18.1716301,38.6705852 19.2505225,39.7494775 C20.3294148,40.8283699 21.582985,41.6760711 23.011233,42.292581 C24.439481,42.9090909 25.9756183,43.2173459 27.6196447,43.2173459 C29.2431209,43.2173459 30.7741205,42.9090909 32.2126437,42.292581 C33.6511668,41.6760711 34.9098746,40.8283699 35.988767,39.7494775 C37.0676594,38.6705852 37.9153605,37.417015 38.5318704,35.988767 C39.1483804,34.560519 39.4566353,33.0243817 39.4566353,31.3803553 C39.4566353,30.0651341 39.2305817,28.7499129 38.7784744,27.4346917 L42.9090909,27.4346917 C43.0734936,28.0923023 43.1967955,28.7499129 43.2789969,29.4075235 C43.3611982,30.0651341 43.4022989,30.7227447 43.4022989,31.3803553 C43.4022989,33.5586904 42.9861546,35.6034483 42.1538662,37.514629 C41.3215778,39.4258098 40.1913096,41.0955242 38.7630617,42.5237722 C37.3348137,43.9520202 35.6650993,45.0822884 33.7539185,45.9145768 C31.8427377,46.7468652 29.7979798,47.1630094 27.6196447,47.1630094 C25.4413096,47.1630094 23.3965517,46.7468652 21.485371,45.9145768 C19.5741902,45.0822884 17.9044758,43.9520202 16.4762278,42.5237722 C15.0479798,41.0955242 13.9228492,39.4258098 13.1008359,37.514629 C12.2788227,35.6034483 11.8678161,33.5586904 11.8678161,31.3803553 C11.8678161,29.2020202 12.2788227,27.1572623 13.1008359,25.2460815 C13.9228492,23.3349007 15.0479798,21.6651863 16.4762278,20.2369383 C17.9044758,18.8086904 19.5741902,17.6784222 21.485371,16.8461338 C23.3965517,16.0138454 25.4413096,15.5977011 27.6196447,15.5977011 C28.2772553,15.5977011 28.9348659,15.6388018 29.5924765,15.7210031 C30.2500871,15.8032045 30.9076977,15.9265064 31.5653083,16.0909091 L31.5653083,20.2215256 C30.2500871,19.7694183 28.9348659,19.5433647 27.6196447,19.5433647 Z M54.3145246,24.3213166 C54.9310345,26.643504 55.2392894,28.9965169 55.2392894,31.3803553 C55.2392894,33.908046 54.9104842,36.3483978 54.2528736,38.7014107 C53.595263,41.0544235 52.6653605,43.253309 51.4631661,45.2980669 C50.2609718,47.3428248 48.817311,49.2077673 47.1321839,50.8928945 C45.4470568,52.5780216 43.5821142,54.0216823 41.5373563,55.2238767 C39.4925984,56.4260711 37.293713,57.3559735 34.9407001,58.0135841 C32.5876872,58.6711947 30.1473354,59 27.6196447,59 C25.091954,59 22.6516022,58.6711947 20.2985893,58.0135841 C17.9455765,57.3559735 15.746691,56.4260711 13.7019331,55.2238767 C11.6571752,54.0216823 9.79223267,52.5780216 8.10710554,50.8928945 C6.4219784,49.2077673 4.97831766,47.3428248 3.7761233,45.2980669 C2.57392894,43.253309 1.64402647,41.0595611 0.986415883,38.7168234 C0.328805294,36.3740857 0,33.9285963 0,31.3803553 C0,28.8526646 0.328805294,26.4123128 0.986415883,24.0592999 C1.64402647,21.706287 2.57392894,19.5074016 3.7761233,17.4626437 C4.97831766,15.4178858 6.4219784,13.5529432 8.10710554,11.8678161 C9.79223267,10.182689 11.6571752,8.73902821 13.7019331,7.53683386 C15.746691,6.3346395 17.9404389,5.40473703 20.2831766,4.74712644 C22.6259143,4.08951585 25.0714037,3.76071055 27.6196447,3.76071055 C30.0034831,3.76071055 32.356496,4.06896552 34.6786834,4.68547544 L31.5653083,7.79885057 L31.5653083,8.04545455 C30.9076977,7.94270289 30.2500871,7.86050157 29.5924765,7.79885057 C28.9348659,7.73719958 28.2772553,7.70637409 27.6196447,7.70637409 C25.4413096,7.70637409 23.3451759,7.98894114 21.3312435,8.55407524 C19.317311,9.11920933 17.4318182,9.91553466 15.6747649,10.9430512 C13.9177116,11.9705677 12.3199234,13.2035876 10.8814002,14.6421108 C9.44287705,16.0806339 8.20985719,17.6784222 7.18234065,19.4354754 C6.1548241,21.1925287 5.35849878,23.0780216 4.79336468,25.091954 C4.22823058,27.1058865 3.94566353,29.2020202 3.94566353,31.3803553 C3.94566353,33.5586904 4.22823058,35.6548241 4.79336468,37.6687565 C5.35849878,39.682689 6.1548241,41.5681818 7.18234065,43.3252351 C8.20985719,45.0822884 9.44287705,46.6800766 10.8814002,48.1185998 C12.3199234,49.557123 13.9177116,50.7901428 15.6747649,51.8176594 C17.4318182,52.8451759 19.317311,53.6415012 21.3312435,54.2066353 C23.3451759,54.7717694 25.4413096,55.0543365 27.6196447,55.0543365 C29.7979798,55.0543365 31.8941135,54.7717694 33.908046,54.2066353 C35.9219784,53.6415012 37.8074713,52.8451759 39.5645246,51.8176594 C41.3215778,50.7901428 42.9193661,49.557123 44.3578892,48.1185998 C45.7964124,46.6800766 47.0294323,45.0822884 48.0569488,43.3252351 C49.0844653,41.5681818 49.8807907,39.682689 50.4459248,37.6687565 C51.0110589,35.6548241 51.2936259,33.5586904 51.2936259,31.3803553 C51.2936259,30.7227447 51.2628004,30.0651341 51.2011494,29.4075235 C51.1394984,28.7499129 51.0572971,28.0923023 50.9545455,27.4346917 L51.2011494,27.4346917 L54.3145246,24.3213166 Z M35.5109718,20.683908 L35.5109718,11.8369906 L47.3479624,0 L47.3479624,11.6520376 L59,11.6520376 L47.1630094,23.4890282 L38.316092,23.4890282 L31.4420063,30.3631139 C31.5242076,30.6713689 31.5653083,31.0104493 31.5653083,31.3803553 C31.5653083,31.9352142 31.4625566,32.4489725 31.2570533,32.9216301 C31.05155,33.3942877 30.7689829,33.8104319 30.4093521,34.1700627 C30.0497214,34.5296935 29.6335772,34.8122605 29.1609195,35.0177638 C28.6882619,35.2232672 28.1745037,35.3260188 27.6196447,35.3260188 C27.0647858,35.3260188 26.5510275,35.2232672 26.0783699,35.0177638 C25.6057123,34.8122605 25.1895681,34.5296935 24.8299373,34.1700627 C24.4703065,33.8104319 24.1877395,33.3942877 23.9822362,32.9216301 C23.7767328,32.4489725 23.6739812,31.9352142 23.6739812,31.3803553 C23.6739812,30.8254963 23.7767328,30.3117381 23.9822362,29.8390805 C24.1877395,29.3664228 24.4703065,28.9502786 24.8299373,28.5906479 C25.1895681,28.2310171 25.6057123,27.94845 26.0783699,27.7429467 C26.5510275,27.5374434 27.0647858,27.4346917 27.6196447,27.4346917 C27.9895507,27.4346917 28.3286311,27.4757924 28.6368861,27.5579937 L35.5109718,20.683908 Z M39.4566353,19.5433647 L45.5292581,19.5433647 L49.4749216,15.5977011 L43.4022989,15.5977011 L43.4022989,9.52507837 L39.4566353,13.4707419 L39.4566353,19.5433647 Z" id="Shape"></path>
        </g>
    </g>
</svg>