<?xml version="1.0" encoding="UTF-8"?>
<svg width="64px" height="59px" viewBox="0 0 64 59" version="1.1" xmlns="http://www.w3.org/2000/svg" xmlns:xlink="http://www.w3.org/1999/xlink">
    <title>icons/reload</title>
    <g id="icons/reload" stroke="none" stroke-width="1" fill="none" fill-rule="evenodd">
        <g id="DevUpdate" transform="translate(2.000000, 0.000000)" fill="#000000" fill-rule="nonzero">
            <path d="M44.25,18.4375 L52.8061523,18.4375 C51.7306315,16.1904297 50.381429,14.1594238 48.7585449,12.3444824 C47.1356608,10.529541 45.3111165,8.97867839 43.2849121,7.69189453 C41.2587077,6.40511068 39.074056,5.41601562 36.730957,4.72460938 C34.3878581,4.03320312 31.9775391,3.6875 29.5,3.6875 C27.1376953,3.6875 24.857015,3.99479167 22.657959,4.609375 C20.458903,5.22395833 18.40389,6.09301758 16.4929199,7.21655273 C14.5819499,8.34008789 12.8390299,9.68929036 11.2641602,11.2641602 C9.68929036,12.8390299 8.34008789,14.5819499 7.21655273,16.4929199 C6.09301758,18.40389 5.22395833,20.458903 4.609375,22.657959 C3.99479167,24.857015 3.6875,27.1376953 3.6875,29.5 C3.6875,31.8623047 3.99479167,34.142985 4.609375,36.342041 C5.22395833,38.541097 6.09301758,40.59611 7.21655273,42.5070801 C8.34008789,44.4180501 9.68929036,46.1609701 11.2641602,47.7358398 C12.8390299,49.3107096 14.5819499,50.6599121 16.4929199,51.7834473 C18.40389,52.9069824 20.4541016,53.7760417 22.6435547,54.390625 C24.8330078,55.0052083 27.1184896,55.3125 29.5,55.3125 C32.3808594,55.3125 35.1560872,54.8467611 37.8256836,53.9152832 C40.4952799,52.9838053 42.9248047,51.6826172 45.1142578,50.0117188 C47.3037109,48.3408203 49.2002767,46.3482259 50.8039551,44.0339355 C52.4076335,41.7196452 53.5935872,39.1700846 54.3618164,36.3852539 L57.9052734,37.3647461 C57.0410156,40.5528971 55.6918132,43.472168 53.857666,46.1225586 C52.0235189,48.7729492 49.8532715,51.0536296 47.3469238,52.9645996 C44.8405762,54.8755697 42.0653483,56.3592122 39.0212402,57.4155273 C35.9771322,58.4718424 32.8033854,59 29.5,59 C26.7919922,59 24.180013,58.6494954 21.6640625,57.9484863 C19.148112,57.2474772 16.7954102,56.2583822 14.605957,54.9812012 C12.4165039,53.7040202 10.4239095,52.1675618 8.62817383,50.3718262 C6.83243815,48.5760905 5.29597982,46.5834961 4.01879883,44.394043 C2.74161784,42.2045898 1.75252279,39.8566895 1.05151367,37.3503418 C0.350504557,34.8439941 0,32.2272135 0,29.5 C0,26.7919922 0.350504557,24.180013 1.05151367,21.6640625 C1.75252279,19.148112 2.74161784,16.7954102 4.01879883,14.605957 C5.29597982,12.4165039 6.83243815,10.4239095 8.62817383,8.62817383 C10.4239095,6.83243815 12.4165039,5.29597982 14.605957,4.01879883 C16.7954102,2.74161784 19.1433105,1.75252279 21.6496582,1.05151367 C24.1560059,0.350504557 26.7727865,0 29.5,0 C32.1888021,0 34.8007812,0.35530599 37.3359375,1.06591797 C39.8710938,1.77652995 42.2574056,2.78963216 44.494873,4.10522461 C46.7323405,5.42081706 48.7681478,7.01969401 50.6022949,8.90185547 C52.4364421,10.7840169 54.0065104,12.90625 55.3125,15.2685547 L55.3125,7.375 L59,7.375 L59,22.125 L44.25,22.125 L44.25,18.4375 Z" id="Shape"></path>
        </g>
    </g>
</svg>