<?xml version="1.0" encoding="UTF-8"?>
<svg width="64px" height="59px" viewBox="0 0 64 59" version="1.1" xmlns="http://www.w3.org/2000/svg" xmlns:xlink="http://www.w3.org/1999/xlink">
    <title>icons/resume</title>
    <g id="icons/resume" stroke="none" stroke-width="1" fill="none" fill-rule="evenodd">
        <g id="DuplexPortraitOneSided" transform="translate(8.000000, 0.000000)" fill="#000000" fill-rule="nonzero">
            <path d="M47.9375,51.625 L40.5625,51.625 L40.5625,59 L0,59 L0,7.375 L7.375,7.375 L7.375,0 L47.9375,0 L47.9375,51.625 Z M36.875,11.0625 L3.6875,11.0625 L3.6875,55.3125 L36.875,55.3125 L36.875,11.0625 Z M44.25,3.6875 L11.0625,3.6875 L11.0625,7.375 L40.5625,7.375 L40.5625,47.9375 L44.25,47.9375 L44.25,3.6875 Z M22.125,25.8125 L7.375,25.8125 L7.375,14.75 L22.125,14.75 L22.125,25.8125 Z M18.4375,18.4375 L11.0625,18.4375 L11.0625,22.125 L18.4375,22.125 L18.4375,18.4375 Z M33.1875,18.4375 L25.8125,18.4375 L25.8125,14.75 L33.1875,14.75 L33.1875,18.4375 Z M33.1875,25.8125 L25.8125,25.8125 L25.8125,22.125 L33.1875,22.125 L33.1875,25.8125 Z M33.1875,33.1875 L7.375,33.1875 L7.375,29.5 L33.1875,29.5 L33.1875,33.1875 Z M33.1875,40.5625 L7.375,40.5625 L7.375,36.875 L33.1875,36.875 L33.1875,40.5625 Z M33.1875,47.9375 L7.375,47.9375 L7.375,44.25 L33.1875,44.25 L33.1875,47.9375 Z" id="Shape"></path>
        </g>
    </g>
</svg>