<?xml version="1.0" encoding="UTF-8"?>
<svg width="64px" height="59px" viewBox="0 0 64 59" version="1.1" xmlns="http://www.w3.org/2000/svg" xmlns:xlink="http://www.w3.org/1999/xlink">
    <title>icons/speaker</title>
    <g id="icons/speaker" stroke="none" stroke-width="1" fill="none" fill-rule="evenodd">
        <g id="Speech" fill="#000000" fill-rule="nonzero">
            <path d="M32.5,36.78125 C34.8125,37.59375 36.921875,38.765625 38.828125,40.296875 C40.734375,41.828125 42.3697917,43.5885417 43.734375,45.578125 C45.0989583,47.5677083 46.1510417,49.7291667 46.890625,52.0625 C47.6302083,54.3958333 48,56.78125 48,59.21875 L44,59.21875 C44,57.3854167 43.7604167,55.6145833 43.28125,53.90625 C42.8020833,52.1979167 42.1302083,50.6041667 41.265625,49.125 C40.4010417,47.6458333 39.359375,46.296875 38.140625,45.078125 C36.921875,43.859375 35.5729167,42.8177083 34.09375,41.953125 C32.6145833,41.0885417 31.0208333,40.4166667 29.3125,39.9375 C27.6041667,39.4583333 25.8333333,39.21875 24,39.21875 C22.1666667,39.21875 20.3958333,39.4583333 18.6875,39.9375 C16.9791667,40.4166667 15.3854167,41.0885417 13.90625,41.953125 C12.4270833,42.8177083 11.078125,43.859375 9.859375,45.078125 C8.640625,46.296875 7.59895833,47.6458333 6.734375,49.125 C5.86979167,50.6041667 5.19791667,52.1979167 4.71875,53.90625 C4.23958333,55.6145833 4,57.3854167 4,59.21875 L0,59.21875 C0,56.78125 0.369791667,54.3958333 1.109375,52.0625 C1.84895833,49.7291667 2.90104167,47.5677083 4.265625,45.578125 C5.63020833,43.5885417 7.265625,41.828125 9.171875,40.296875 C11.078125,38.765625 13.1875,37.59375 15.5,36.78125 C14.3333333,36.03125 13.2864583,35.1666667 12.359375,34.1875 C11.4322917,33.2083333 10.6458333,32.1354167 10,30.96875 C9.35416667,29.8020833 8.859375,28.5677083 8.515625,27.265625 C8.171875,25.9635417 8,24.6145833 8,23.21875 C8,21.0104167 8.41666667,18.9322917 9.25,16.984375 C10.0833333,15.0364583 11.2239583,13.3385417 12.671875,11.890625 C14.1197917,10.4427083 15.8177083,9.30208333 17.765625,8.46875 C19.7135417,7.63541667 21.7916667,7.21875 24,7.21875 C26.2083333,7.21875 28.2864583,7.63541667 30.234375,8.46875 C32.1822917,9.30208333 33.8802083,10.4427083 35.328125,11.890625 C36.7760417,13.3385417 37.9166667,15.0364583 38.75,16.984375 C39.5833333,18.9322917 40,21.0104167 40,23.21875 C40,24.6145833 39.828125,25.9635417 39.484375,27.265625 C39.140625,28.5677083 38.6458333,29.8020833 38,30.96875 C37.3541667,32.1354167 36.5677083,33.2083333 35.640625,34.1875 C34.7135417,35.1666667 33.6666667,36.03125 32.5,36.78125 Z M12,23.21875 C12,24.8854167 12.3125,26.4427083 12.9375,27.890625 C13.5625,29.3385417 14.421875,30.609375 15.515625,31.703125 C16.609375,32.796875 17.8802083,33.65625 19.328125,34.28125 C20.7760417,34.90625 22.3333333,35.21875 24,35.21875 C25.6458333,35.21875 27.1979167,34.90625 28.65625,34.28125 C30.1145833,33.65625 31.390625,32.796875 32.484375,31.703125 C33.578125,30.609375 34.4375,29.3385417 35.0625,27.890625 C35.6875,26.4427083 36,24.8854167 36,23.21875 C36,21.5729167 35.6875,20.0208333 35.0625,18.5625 C34.4375,17.1041667 33.578125,15.828125 32.484375,14.734375 C31.390625,13.640625 30.1145833,12.78125 28.65625,12.15625 C27.1979167,11.53125 25.6458333,11.21875 24,11.21875 C22.3333333,11.21875 20.7760417,11.53125 19.328125,12.15625 C17.8802083,12.78125 16.609375,13.640625 15.515625,14.734375 C14.421875,15.828125 13.5625,17.1041667 12.9375,18.5625 C12.3125,20.0208333 12,21.5729167 12,23.21875 Z M55.21875,0 C58.0520833,2.85416667 60.2239583,6.09375 61.734375,9.71875 C63.2447917,13.34375 64,17.1770833 64,21.21875 C64,25.2604167 63.2447917,29.09375 61.734375,32.71875 C60.2239583,36.34375 58.0520833,39.5833333 55.21875,42.4375 L52.375,39.59375 C54.8333333,37.1354167 56.71875,34.328125 58.03125,31.171875 C59.34375,28.015625 60,24.6979167 60,21.21875 C60,17.7395833 59.34375,14.421875 58.03125,11.265625 C56.71875,8.109375 54.8333333,5.30208333 52.375,2.84375 L55.21875,0 Z M46.71875,8.5 C48.40625,10.1875 49.7083333,12.1302083 50.625,14.328125 C51.5416667,16.5260417 52,18.8229167 52,21.21875 C52,23.6145833 51.5416667,25.9114583 50.625,28.109375 C49.7083333,30.3072917 48.40625,32.25 46.71875,33.9375 L43.90625,31.125 C45.21875,29.8125 46.2239583,28.3020833 46.921875,26.59375 C47.6197917,24.8854167 47.96875,23.09375 47.96875,21.21875 C47.96875,19.34375 47.6197917,17.5520833 46.921875,15.84375 C46.2239583,14.1354167 45.21875,12.625 43.90625,11.3125 L46.71875,8.5 Z" id="Shape"></path>
        </g>
    </g>
</svg>